<svg height="2238" width="720" xmlns="http://www.w3.org/2000/svg">
<rect height="2238" fill="#555" width="720"></rect>
<text fill="#7f7" font-family="Courier New" font-size="12" xml:space="preserve">
<tspan x="10" y="26"></tspan>
<tspan x="10" y="42">&gt; npmdoc-yo@0.0.1 test /home/travis/build/npmdoc/node-npmdoc-yo</tspan>
<tspan x="10" y="58">&gt; (set -e; export PORT=$(utility2 shServerPortRandom); utility2 test test.js)</tspan>
<tspan x="10" y="74"></tspan>
<tspan x="10" y="90"></tspan>
<tspan x="10" y="106">[MODE_BUILD=npmTest] - 2017-03-19T17:55:43Z - npm-testing /home/travis/build/npmdoc/node-npmdoc-\</tspan>
<tspan x="10" y="122">yo</tspan>
<tspan x="10" y="138"></tspan>
<tspan x="10" y="154"></tspan>
<tspan x="10" y="170">covering $ /home/travis/.nvm/versions/node/v7.7.3/bin/node /home/travis/build/npmdoc/node-npmdoc\</tspan>
<tspan x="10" y="186">-yo/test.js</tspan>
<tspan x="10" y="202">merging file:///home/travis/build/npmdoc/node-npmdoc-yo/tmp/build/test-report.json to test-repor\</tspan>
<tspan x="10" y="218">t</tspan>
<tspan x="10" y="234">&gt; server listening on http-port 44702</tspan>
<tspan x="10" y="250">created apidoc file:///home/travis/build/npmdoc/node-npmdoc-yo/tmp/build/apidoc.html</tspan>
<tspan x="10" y="266"></tspan>
<tspan x="10" y="282"></tspan>
<tspan x="10" y="298">browserTest - created electron entry-page /home/travis/build/npmdoc/node-npmdoc-yo/tmp/electron.\</tspan>
<tspan x="10" y="314">15ae7b5ef880.15b5de6bd208c.html</tspan>
<tspan x="10" y="330"></tspan>
<tspan x="10" y="346">[node test-case 1 of 6 passed] - testCase_buildLib_default</tspan>
<tspan x="10" y="362">[node test-case 2 of 6 passed] - testCase_buildReadme_default</tspan>
<tspan x="10" y="378">[node test-case 3 of 6 passed] - testCase_buildTest_default</tspan>
<tspan x="10" y="394"></tspan>
<tspan x="10" y="410">browserTest - created electron entry-page /home/travis/build/npmdoc/node-npmdoc-yo/tmp/electron.\</tspan>
<tspan x="10" y="426">15ae7b5efd70.5efd6d3076eb6.html</tspan>
<tspan x="10" y="442"></tspan>
<tspan x="10" y="458">(node:4434) DeprecationWarning: node --debug is deprecated. Please use node --inspect instead.</tspan>
<tspan x="10" y="474">Xlib:  extension "RANDR" missing on display ":99.0".</tspan>
<tspan x="10" y="490">Xlib:  extension "RANDR" missing on display ":99.0".</tspan>
<tspan x="10" y="506">&gt; server listening on http-port 59847</tspan>
<tspan x="10" y="522">[?25l? 'Allo Travis! What would you like to do? (Use arrow keys)</tspan>
<tspan x="10" y="538">  Run a generator</tspan>
<tspan x="10" y="554">  â”€â”€â”€â”€â”€â”€â”€â”€â”€â”€â”€â”€â”€â”€</tspan>
<tspan x="10" y="570">â¯ Install a generator </tspan>
<tspan x="10" y="586">  Find some help </tspan>
<tspan x="10" y="602">  Get me out of here! </tspan>
<tspan x="10" y="618">  â”€â”€â”€â”€â”€â”€â”€â”€â”€â”€â”€â”€â”€â”€erging file:///home/travis/build/npmdoc/node-npmdoc-yo/tmp/build/test-report.jso\</tspan>
<tspan x="10" y="634">n to test-report</tspan>
<tspan x="10" y="650">Xlib:  extension "RANDR" missing on display ":99.0".</tspan>
<tspan x="10" y="666">[4464:0319/175546:WARNING:audio_manager.cc(314)] Multiple instances of AudioManager detected</tspan>
<tspan x="10" y="682">[4464:0319/175546:WARNING:audio_manager.cc(275)] Multiple instances of AudioManager detected</tspan>
<tspan x="10" y="698">merging file:///home/travis/build/npmdoc/node-npmdoc-yo/tmp/build/test-report.json to test-repor\</tspan>
<tspan x="10" y="714">t</tspan>
<tspan x="10" y="730">[4517:0319/175546:ERROR:sandbox_linux.cc(343)] InitializeSandbox() called with multiple threads \</tspan>
<tspan x="10" y="746">in process gpu-process. </tspan>
<tspan x="10" y="762">Xlib:  extension "RANDR" missing on display ":99.0".</tspan>
<tspan x="10" y="778">[4464:0319/175546:ERROR:browser_gpu_channel_host_factory.cc(131)] Failed to create channel.</tspan>
<tspan x="10" y="794">[4474:0319/175546:WARNING:audio_manager.cc(314)] Multiple instances of AudioManager detected</tspan>
<tspan x="10" y="810">[4474:0319/175546:WARNING:audio_manager.cc(275)] Multiple instances of AudioManager detected</tspan>
<tspan x="10" y="826">[4543:0319/175546:ERROR:sandbox_linux.cc(343)] InitializeSandbox() called with multiple threads \</tspan>
<tspan x="10" y="842">in process gpu-process. </tspan>
<tspan x="10" y="858">[4474:0319/175546:ERROR:browser_gpu_channel_host_factory.cc(131)] Failed to create channel.</tspan>
<tspan x="10" y="874"></tspan>
<tspan x="10" y="890">browserTest - opened url file:///home/travis/build/npmdoc/node-npmdoc-yo/tmp/build/apidoc.html</tspan>
<tspan x="10" y="906"></tspan>
<tspan x="10" y="922"></tspan>
<tspan x="10" y="938">browserTest - opened url http://127.0.0.1:44702?modeTest=1</tspan>
<tspan x="10" y="954"></tspan>
<tspan x="10" y="970">[4474:0319/175548:INFO:CONSOLE(203)] "----------|-----------|-----------|-----------|-----------\</tspan>
<tspan x="10" y="986">|</tspan>
<tspan x="10" y="1002">File      |   % Stmts |% Branches |   % Funcs |   % Lines |</tspan>
<tspan x="10" y="1018">----------|-----------|-----------|-----------|-----------|</tspan>
<tspan x="10" y="1034">----------|-----------|-----------|-----------|-----------|</tspan>
<tspan x="10" y="1050">All files |       100 |       100 |       100 |       100 |</tspan>
<tspan x="10" y="1066">----------|-----------|-----------|-----------|-----------|</tspan>
<tspan x="10" y="1082">", source: file:///home/travis/build/npmdoc/node-npmdoc-yo/tmp/electron.15ae7b5efd70.5efd6d3076e\</tspan>
<tspan x="10" y="1098">b6.html (203)</tspan>
<tspan x="10" y="1114">[4474:0319/175548:INFO:CONSOLE(203)] "created coverage file:///tmp/build/coverage.html/index.htm\</tspan>
<tspan x="10" y="1130">l", source: file:///home/travis/build/npmdoc/node-npmdoc-yo/tmp/electron.15ae7b5efd70.5efd6d3076\</tspan>
<tspan x="10" y="1146">eb6.html (203)</tspan>
<tspan x="10" y="1162">[node test-case 4 of 6 passed] - testCase_buildApp_default</tspan>
<tspan x="10" y="1178"></tspan>
<tspan x="10" y="1194">browserTest - created screen-capture file:///home/travis/build/npmdoc/node-npmdoc-yo/tmp/build/s\</tspan>
<tspan x="10" y="1210">creen-capture.npmTest.browser._2Fhome_2Ftravis_2Fbuild_2Fnpmdoc_2Fnode-npmdoc-yo_2Ftmp_2Fbuild_2\</tspan>
<tspan x="10" y="1226">Fapidoc.html.png</tspan>
<tspan x="10" y="1242"></tspan>
<tspan x="10" y="1258"></tspan>
<tspan x="10" y="1274">browserTest - exit-code 0 - file:///home/travis/build/npmdoc/node-npmdoc-yo/tmp/build/apidoc.htm\</tspan>
<tspan x="10" y="1290">l</tspan>
<tspan x="10" y="1306"></tspan>
<tspan x="10" y="1322">[node test-case 5 of 6 passed] - testCase_buildApidoc_default</tspan>
<tspan x="10" y="1338"></tspan>
<tspan x="10" y="1354">browserTest - created screen-capture file:///home/travis/build/npmdoc/node-npmdoc-yo/tmp/build/s\</tspan>
<tspan x="10" y="1370">creen-capture.npmTest.browser..png</tspan>
<tspan x="10" y="1386"></tspan>
<tspan x="10" y="1402"></tspan>
<tspan x="10" y="1418">browserTest - exit-code 0 - http://127.0.0.1:44702?modeTest=1</tspan>
<tspan x="10" y="1434"></tspan>
<tspan x="10" y="1450"></tspan>
<tspan x="10" y="1466">browserTest - merged coverage from /home/travis/build/npmdoc/node-npmdoc-yo/tmp/coverage.npmTest\</tspan>
<tspan x="10" y="1482">.browser.%2F.json</tspan>
<tspan x="10" y="1498"></tspan>
<tspan x="10" y="1514"></tspan>
<tspan x="10" y="1530">browserTest - merging test-report from /home/travis/build/npmdoc/node-npmdoc-yo/tmp/test-report.\</tspan>
<tspan x="10" y="1546">npmTest.browser.%2F.json</tspan>
<tspan x="10" y="1562"></tspan>
<tspan x="10" y="1578">[node test-case 6 of 6 passed] - testCase_webpage_default</tspan>
<tspan x="10" y="1594">-----------------------|-----------|-----------|-----------|-----------|</tspan>
<tspan x="10" y="1610">File                   |   % Stmts |% Branches |   % Funcs |   % Lines |</tspan>
<tspan x="10" y="1626">-----------------------|-----------|-----------|-----------|-----------|</tspan>
<tspan x="10" y="1642">   node-npmdoc-yo/     |       100 |       100 |       100 |       100 |</tspan>
<tspan x="10" y="1658">      example.js       |       100 |       100 |       100 |       100 |</tspan>
<tspan x="10" y="1674">      lib.npmdoc_yo.js |       100 |       100 |       100 |       100 |</tspan>
<tspan x="10" y="1690">      test.js          |       100 |       100 |       100 |       100 |</tspan>
<tspan x="10" y="1706">-----------------------|-----------|-----------|-----------|-----------|</tspan>
<tspan x="10" y="1722">All files              |       100 |       100 |       100 |       100 |</tspan>
<tspan x="10" y="1738">-----------------------|-----------|-----------|-----------|-----------|</tspan>
<tspan x="10" y="1754"></tspan>
<tspan x="10" y="1770">created coverage file:///home/travis/build/npmdoc/node-npmdoc-yo/tmp/build/coverage.html/index.h\</tspan>
<tspan x="10" y="1786">tml</tspan>
<tspan x="10" y="1802"></tspan>
<tspan x="10" y="1818">     _-----_     â•­â”€â”€â”€â”€â”€â”€â”€â”€â”€â”€â”€â”€â”€â”€â”€â”€â”€â”€â”€â”€â”€â”€â”€â•®</tspan>
<tspan x="10" y="1834">    |       |    â”‚      Bye from us!     â”‚</tspan>
<tspan x="10" y="1850">    |--(o)--|    â”‚       Chat soon.      â”‚</tspan>
<tspan x="10" y="1866">   `---------Â´   â”‚      Yeoman team      â”‚</tspan>
<tspan x="10" y="1882">    ( _Â´U`_ )    â”‚    http://yeoman.io   â”‚</tspan>
<tspan x="10" y="1898">    /___A___\   /â•°â”€â”€â”€â”€â”€â”€â”€â”€â”€â”€â”€â”€â”€â”€â”€â”€â”€â”€â”€â”€â”€â”€â”€â•¯</tspan>
<tspan x="10" y="1914">     |  ~  |     </tspan>
<tspan x="10" y="1930">   __'.___.'__   </tspan>
<tspan x="10" y="1946"> Â´   `  |Â° Â´ Y ` </tspan>
<tspan x="10" y="1962"></tspan>
<tspan x="10" y="1978"></tspan>
<tspan x="10" y="1994"></tspan>
<tspan x="10" y="2010">erging file:///home/travis/build/npmdoc/node-npmdoc-yo/tmp/build/test-report.json to test-report</tspan>
<tspan x="10" y="2026"></tspan>
<tspan x="10" y="2042">-------------------------------------------------------</tspan>
<tspan x="10" y="2058">| test-report - buildNpmdoc - node - linux v7.7.3 - 2017-03-19T17:55:32.953Z</tspan>
<tspan x="10" y="2074">|   18013 ms            0 failed        6 passed      |</tspan>
<tspan x="10" y="2090">-------------------------------------------------------</tspan>
<tspan x="10" y="2106"></tspan>
<tspan x="10" y="2122">created test-report file:///home/travis/build/npmdoc/node-npmdoc-yo/tmp/build/test-report.html</tspan>
<tspan x="10" y="2138"></tspan>
<tspan x="10" y="2154"></tspan>
<tspan x="10" y="2170">npmTest - 0 failed tests</tspan>
<tspan x="10" y="2186"></tspan>
<tspan x="10" y="2202"></tspan>
<tspan x="10" y="2218">[MODE_BUILD=npmTest] - 2017-03-19T17:55:53Z - EXIT_CODE - 0</tspan>
</text>
</svg>
