<svg height="2222" width="720" xmlns="http://www.w3.org/2000/svg">
<rect height="2222" fill="#555" width="720"></rect>
<text fill="#7f7" font-family="Courier New" font-size="12" xml:space="preserve">
<tspan x="10" y="26"></tspan>
<tspan x="10" y="42">&gt; npmdoc-yo@0.0.2 test /home/travis/build/npmdoc/node-npmdoc-yo</tspan>
<tspan x="10" y="58">&gt; (set -e; export PORT=$(utility2 shServerPortRandom); utility2 test test.js)</tspan>
<tspan x="10" y="74"></tspan>
<tspan x="10" y="90"></tspan>
<tspan x="10" y="106">[MODE_BUILD=npmTest] - 2017-03-25T18:30:02Z - npm-testing /home/travis/build/npmdoc/node-npmdoc-\</tspan>
<tspan x="10" y="122">yo</tspan>
<tspan x="10" y="138"></tspan>
<tspan x="10" y="154"></tspan>
<tspan x="10" y="170">covering $ /home/travis/.nvm/versions/node/v6.10.1/bin/node /home/travis/build/npmdoc/node-npmdo\</tspan>
<tspan x="10" y="186">c-yo/test.js</tspan>
<tspan x="10" y="202">merging file:///home/travis/build/npmdoc/node-npmdoc-yo/tmp/build/test-report.json to test-repor\</tspan>
<tspan x="10" y="218">t</tspan>
<tspan x="10" y="234">&gt; server listening on http-port 55928</tspan>
<tspan x="10" y="250">created apidoc file:///home/travis/build/npmdoc/node-npmdoc-yo/tmp/build/apidoc.html</tspan>
<tspan x="10" y="266"></tspan>
<tspan x="10" y="282"></tspan>
<tspan x="10" y="298">browserTest - created electron entry-page /home/travis/build/npmdoc/node-npmdoc-yo/tmp/electron.\</tspan>
<tspan x="10" y="314">15b06bb82d60.76a40e6934c38.html</tspan>
<tspan x="10" y="330"></tspan>
<tspan x="10" y="346">[node test-case 1 of 6 passed] - testCase_buildLib_default</tspan>
<tspan x="10" y="362">[node test-case 2 of 6 passed] - testCase_buildReadme_default</tspan>
<tspan x="10" y="378">[node test-case 3 of 6 passed] - testCase_buildTest_default</tspan>
<tspan x="10" y="394"></tspan>
<tspan x="10" y="410">browserTest - created electron entry-page /home/travis/build/npmdoc/node-npmdoc-yo/tmp/electron.\</tspan>
<tspan x="10" y="426">15b06bb830b0.2429b4e045c6e.html</tspan>
<tspan x="10" y="442"></tspan>
<tspan x="10" y="458">Xlib:  extension "RANDR" missing on display ":99.0".</tspan>
<tspan x="10" y="474">Xlib:  extension "RANDR" missing on display ":99.0".</tspan>
<tspan x="10" y="490">&gt; [?25lserver listening on http-port 34827</tspan>
<tspan x="10" y="506">? 'Allo Travis! What would you like to do? (Use arrow keys)</tspan>
<tspan x="10" y="522">  Run a generator</tspan>
<tspan x="10" y="538">  â”€â”€â”€â”€â”€â”€â”€â”€â”€â”€â”€â”€â”€â”€</tspan>
<tspan x="10" y="554">â¯ Install a generator </tspan>
<tspan x="10" y="570">  Find some help </tspan>
<tspan x="10" y="586">  Get me out of here! </tspan>
<tspan x="10" y="602">  â”€â”€â”€â”€â”€â”€â”€â”€â”€â”€â”€â”€â”€â”€erging file:///home/travis/build/npmdoc/node-npmdoc-yo/tmp/build/test-report.jso\</tspan>
<tspan x="10" y="618">n to test-report</tspan>
<tspan x="10" y="634">merging file:///home/travis/build/npmdoc/node-npmdoc-yo/tmp/build/test-report.json to test-repor\</tspan>
<tspan x="10" y="650">t</tspan>
<tspan x="10" y="666">Xlib:  extension "RANDR" missing on display ":99.0".</tspan>
<tspan x="10" y="682">Xlib:  extension "RANDR" missing on display ":99.0".</tspan>
<tspan x="10" y="698">[4773:0325/183004:WARNING:audio_manager.cc(314)] Multiple instances of AudioManager detected</tspan>
<tspan x="10" y="714">[4773:0325/183004:WARNING:audio_manager.cc(275)] Multiple instances of AudioManager detected</tspan>
<tspan x="10" y="730">[4772:0325/183005:WARNING:audio_manager.cc(314)] Multiple instances of AudioManager detected</tspan>
<tspan x="10" y="746">[4772:0325/183005:WARNING:audio_manager.cc(275)] Multiple instances of AudioManager detected</tspan>
<tspan x="10" y="762">[4811:0325/183005:ERROR:sandbox_linux.cc(343)] InitializeSandbox() called with multiple threads \</tspan>
<tspan x="10" y="778">in process gpu-process. </tspan>
<tspan x="10" y="794">[4773:0325/183005:ERROR:browser_gpu_channel_host_factory.cc(131)] Failed to create channel.</tspan>
<tspan x="10" y="810">[4829:0325/183005:ERROR:sandbox_linux.cc(343)] InitializeSandbox() called with multiple threads \</tspan>
<tspan x="10" y="826">in process gpu-process. </tspan>
<tspan x="10" y="842">[4772:0325/183005:ERROR:browser_gpu_channel_host_factory.cc(131)] Failed to create channel.</tspan>
<tspan x="10" y="858"></tspan>
<tspan x="10" y="874">browserTest - opened url file:///home/travis/build/npmdoc/node-npmdoc-yo/tmp/build/apidoc.html</tspan>
<tspan x="10" y="890"></tspan>
<tspan x="10" y="906"></tspan>
<tspan x="10" y="922">browserTest - opened url http://127.0.0.1:55928?modeTest=1</tspan>
<tspan x="10" y="938"></tspan>
<tspan x="10" y="954">[4773:0325/183007:INFO:CONSOLE(203)] "----------|-----------|-----------|-----------|-----------\</tspan>
<tspan x="10" y="970">|</tspan>
<tspan x="10" y="986">File      |   % Stmts |% Branches |   % Funcs |   % Lines |</tspan>
<tspan x="10" y="1002">----------|-----------|-----------|-----------|-----------|</tspan>
<tspan x="10" y="1018">----------|-----------|-----------|-----------|-----------|</tspan>
<tspan x="10" y="1034">All files |       100 |       100 |       100 |       100 |</tspan>
<tspan x="10" y="1050">----------|-----------|-----------|-----------|-----------|</tspan>
<tspan x="10" y="1066">", source: file:///home/travis/build/npmdoc/node-npmdoc-yo/tmp/electron.15b06bb830b0.2429b4e045c\</tspan>
<tspan x="10" y="1082">6e.html (203)</tspan>
<tspan x="10" y="1098">[4773:0325/183007:INFO:CONSOLE(203)] "created coverage file:///tmp/build/coverage.html/index.htm\</tspan>
<tspan x="10" y="1114">l", source: file:///home/travis/build/npmdoc/node-npmdoc-yo/tmp/electron.15b06bb830b0.2429b4e045\</tspan>
<tspan x="10" y="1130">c6e.html (203)</tspan>
<tspan x="10" y="1146">[node test-case 4 of 6 passed] - testCase_buildApp_default</tspan>
<tspan x="10" y="1162"></tspan>
<tspan x="10" y="1178">browserTest - created screen-capture file:///home/travis/build/npmdoc/node-npmdoc-yo/tmp/build/s\</tspan>
<tspan x="10" y="1194">creen-capture.npmTest.browser._2Fhome_2Ftravis_2Fbuild_2Fnpmdoc_2Fnode-npmdoc-yo_2Ftmp_2Fbuild_2\</tspan>
<tspan x="10" y="1210">Fapidoc.html.png</tspan>
<tspan x="10" y="1226"></tspan>
<tspan x="10" y="1242"></tspan>
<tspan x="10" y="1258">browserTest - exit-code 0 - file:///home/travis/build/npmdoc/node-npmdoc-yo/tmp/build/apidoc.htm\</tspan>
<tspan x="10" y="1274">l</tspan>
<tspan x="10" y="1290"></tspan>
<tspan x="10" y="1306">[node test-case 5 of 6 passed] - testCase_buildApidoc_default</tspan>
<tspan x="10" y="1322"></tspan>
<tspan x="10" y="1338">browserTest - created screen-capture file:///home/travis/build/npmdoc/node-npmdoc-yo/tmp/build/s\</tspan>
<tspan x="10" y="1354">creen-capture.npmTest.browser..png</tspan>
<tspan x="10" y="1370"></tspan>
<tspan x="10" y="1386"></tspan>
<tspan x="10" y="1402">browserTest - exit-code 0 - http://127.0.0.1:55928?modeTest=1</tspan>
<tspan x="10" y="1418"></tspan>
<tspan x="10" y="1434"></tspan>
<tspan x="10" y="1450">browserTest - merged coverage from /home/travis/build/npmdoc/node-npmdoc-yo/tmp/coverage.npmTest\</tspan>
<tspan x="10" y="1466">.browser.%2F.json</tspan>
<tspan x="10" y="1482"></tspan>
<tspan x="10" y="1498"></tspan>
<tspan x="10" y="1514">browserTest - merging test-report from /home/travis/build/npmdoc/node-npmdoc-yo/tmp/test-report.\</tspan>
<tspan x="10" y="1530">npmTest.browser.%2F.json</tspan>
<tspan x="10" y="1546"></tspan>
<tspan x="10" y="1562">[node test-case 6 of 6 passed] - testCase_webpage_default</tspan>
<tspan x="10" y="1578">-----------------------|-----------|-----------|-----------|-----------|</tspan>
<tspan x="10" y="1594">File                   |   % Stmts |% Branches |   % Funcs |   % Lines |</tspan>
<tspan x="10" y="1610">-----------------------|-----------|-----------|-----------|-----------|</tspan>
<tspan x="10" y="1626">   node-npmdoc-yo/     |       100 |       100 |       100 |       100 |</tspan>
<tspan x="10" y="1642">      example.js       |       100 |       100 |       100 |       100 |</tspan>
<tspan x="10" y="1658">      lib.npmdoc_yo.js |       100 |       100 |       100 |       100 |</tspan>
<tspan x="10" y="1674">      test.js          |       100 |       100 |       100 |       100 |</tspan>
<tspan x="10" y="1690">-----------------------|-----------|-----------|-----------|-----------|</tspan>
<tspan x="10" y="1706">All files              |       100 |       100 |       100 |       100 |</tspan>
<tspan x="10" y="1722">-----------------------|-----------|-----------|-----------|-----------|</tspan>
<tspan x="10" y="1738"></tspan>
<tspan x="10" y="1754">created coverage file:///home/travis/build/npmdoc/node-npmdoc-yo/tmp/build/coverage.html/index.h\</tspan>
<tspan x="10" y="1770">tml</tspan>
<tspan x="10" y="1786"></tspan>
<tspan x="10" y="1802">     _-----_     â•­â”€â”€â”€â”€â”€â”€â”€â”€â”€â”€â”€â”€â”€â”€â”€â”€â”€â”€â”€â”€â”€â”€â”€â•®</tspan>
<tspan x="10" y="1818">    |       |    â”‚      Bye from us!     â”‚</tspan>
<tspan x="10" y="1834">    |--(o)--|    â”‚       Chat soon.      â”‚</tspan>
<tspan x="10" y="1850">   `---------Â´   â”‚      Yeoman team      â”‚</tspan>
<tspan x="10" y="1866">    ( _Â´U`_ )    â”‚    http://yeoman.io   â”‚</tspan>
<tspan x="10" y="1882">    /___A___\   /â•°â”€â”€â”€â”€â”€â”€â”€â”€â”€â”€â”€â”€â”€â”€â”€â”€â”€â”€â”€â”€â”€â”€â”€â•¯</tspan>
<tspan x="10" y="1898">     |  ~  |     </tspan>
<tspan x="10" y="1914">   __'.___.'__   </tspan>
<tspan x="10" y="1930"> Â´   `  |Â° Â´ Y ` </tspan>
<tspan x="10" y="1946"></tspan>
<tspan x="10" y="1962"></tspan>
<tspan x="10" y="1978"></tspan>
<tspan x="10" y="1994">erging file:///home/travis/build/npmdoc/node-npmdoc-yo/tmp/build/test-report.json to test-report</tspan>
<tspan x="10" y="2010"></tspan>
<tspan x="10" y="2026">-------------------------------------------------------</tspan>
<tspan x="10" y="2042">| test-report - buildNpmdoc - node - linux v6.10.1 - 2017-03-25T18:29:33.226Z</tspan>
<tspan x="10" y="2058">|   35930 ms            0 failed        6 passed      |</tspan>
<tspan x="10" y="2074">-------------------------------------------------------</tspan>
<tspan x="10" y="2090"></tspan>
<tspan x="10" y="2106">created test-report file:///home/travis/build/npmdoc/node-npmdoc-yo/tmp/build/test-report.html</tspan>
<tspan x="10" y="2122"></tspan>
<tspan x="10" y="2138"></tspan>
<tspan x="10" y="2154">npmTest - 0 failed tests</tspan>
<tspan x="10" y="2170"></tspan>
<tspan x="10" y="2186"></tspan>
<tspan x="10" y="2202">[MODE_BUILD=npmTest] - 2017-03-25T18:30:12Z - EXIT_CODE - 0</tspan>
</text>
</svg>
