<svg height="2014" width="720" xmlns="http://www.w3.org/2000/svg">
<rect height="2014" fill="#555" width="720"></rect>
<text fill="#7f7" font-family="Courier New" font-size="12" xml:space="preserve">
<tspan x="10" y="26"></tspan>
<tspan x="10" y="42">&gt; npmdoc-webpack@0.0.1 test /home/travis/build/npmdoc/node-npmdoc-yo</tspan>
<tspan x="10" y="58">&gt; (set -e; export PORT=$(utility2 shServerPortRandom); utility2 test test.js)</tspan>
<tspan x="10" y="74"></tspan>
<tspan x="10" y="90"></tspan>
<tspan x="10" y="106">[MODE_BUILD=npmTest] - 2017-03-19T03:19:59Z - npm-testing /home/travis/build/npmdoc/node-npmdoc-\</tspan>
<tspan x="10" y="122">yo</tspan>
<tspan x="10" y="138"></tspan>
<tspan x="10" y="154"></tspan>
<tspan x="10" y="170">covering $ /home/travis/.nvm/versions/node/v7.7.3/bin/node /home/travis/build/npmdoc/node-npmdoc\</tspan>
<tspan x="10" y="186">-yo/test.js</tspan>
<tspan x="10" y="202">merging file:///home/travis/build/npmdoc/node-npmdoc-yo/tmp/build/test-report.json to test-repor\</tspan>
<tspan x="10" y="218">t</tspan>
<tspan x="10" y="234">&gt; server listening on http-port 50866</tspan>
<tspan x="10" y="250">apidocCreate - normalizing dir webpack</tspan>
<tspan x="10" y="266">apidocCreate - normalized dir /home/travis/build/npmdoc/node-npmdoc-yo/node_modules/webpack</tspan>
<tspan x="10" y="282">created apidoc file:///home/travis/build/npmdoc/node-npmdoc-yo/tmp/build/apidoc.html</tspan>
<tspan x="10" y="298"></tspan>
<tspan x="10" y="314"></tspan>
<tspan x="10" y="330">browserTest - created electron entry-page /home/travis/build/npmdoc/node-npmdoc-yo/tmp/electron.\</tspan>
<tspan x="10" y="346">15ae494360b0.dddab8284255f.html</tspan>
<tspan x="10" y="362"></tspan>
<tspan x="10" y="378">apidocCreate - normalizing dir webpack</tspan>
<tspan x="10" y="394">apidocCreate - normalized dir /home/travis/build/npmdoc/node-npmdoc-yo/node_modules/webpack</tspan>
<tspan x="10" y="410">Xlib:  extension "RANDR" missing on display ":99.0".</tspan>
<tspan x="10" y="426">merging file:///home/travis/build/npmdoc/node-npmdoc-yo/tmp/build/test-report.json to test-repor\</tspan>
<tspan x="10" y="442">t</tspan>
<tspan x="10" y="458">Xlib:  extension "RANDR" missing on display ":99.0".</tspan>
<tspan x="10" y="474">[4382:0319/032003:WARNING:audio_manager.cc(314)] Multiple instances of AudioManager detected</tspan>
<tspan x="10" y="490">[4382:0319/032003:WARNING:audio_manager.cc(275)] Multiple instances of AudioManager detected</tspan>
<tspan x="10" y="506">[4399:0319/032003:ERROR:sandbox_linux.cc(343)] InitializeSandbox() called with multiple threads \</tspan>
<tspan x="10" y="522">in process gpu-process. </tspan>
<tspan x="10" y="538">[4382:0319/032003:ERROR:browser_gpu_channel_host_factory.cc(131)] Failed to create channel.</tspan>
<tspan x="10" y="554"></tspan>
<tspan x="10" y="570">browserTest - opened url file:///home/travis/build/npmdoc/node-npmdoc-yo/tmp/build/apidoc.html</tspan>
<tspan x="10" y="586"></tspan>
<tspan x="10" y="602">[node test-case 1 of 6 passed] - testCase_buildLib_default</tspan>
<tspan x="10" y="618">[node test-case 2 of 6 passed] - testCase_buildReadme_default</tspan>
<tspan x="10" y="634">[node test-case 3 of 6 passed] - testCase_buildTest_default</tspan>
<tspan x="10" y="650"></tspan>
<tspan x="10" y="666">browserTest - created electron entry-page /home/travis/build/npmdoc/node-npmdoc-yo/tmp/electron.\</tspan>
<tspan x="10" y="682">15ae494433c0.dc3c8ff3cc86a.html</tspan>
<tspan x="10" y="698"></tspan>
<tspan x="10" y="714">(node:4368) DeprecationWarning: node --debug is deprecated. Please use node --inspect instead.</tspan>
<tspan x="10" y="730">Xlib:  extension "RANDR" missing on display ":99.0".</tspan>
<tspan x="10" y="746">&gt; server listening on http-port 54029</tspan>
<tspan x="10" y="762">merging file:///home/travis/build/npmdoc/node-npmdoc-yo/tmp/build/test-report.json to test-repor\</tspan>
<tspan x="10" y="778">t</tspan>
<tspan x="10" y="794">Xlib:  extension "RANDR" missing on display ":99.0".</tspan>
<tspan x="10" y="810">[4447:0319/032006:WARNING:audio_manager.cc(314)] Multiple instances of AudioManager detected</tspan>
<tspan x="10" y="826">[4447:0319/032006:WARNING:audio_manager.cc(275)] Multiple instances of AudioManager detected</tspan>
<tspan x="10" y="842">[4472:0319/032007:ERROR:sandbox_linux.cc(343)] InitializeSandbox() called with multiple threads \</tspan>
<tspan x="10" y="858">in process gpu-process. </tspan>
<tspan x="10" y="874">[4447:0319/032007:ERROR:browser_gpu_channel_host_factory.cc(131)] Failed to create channel.</tspan>
<tspan x="10" y="890"></tspan>
<tspan x="10" y="906">browserTest - opened url http://127.0.0.1:50866?modeTest=1</tspan>
<tspan x="10" y="922"></tspan>
<tspan x="10" y="938">[4447:0319/032008:INFO:CONSOLE(203)] "----------|-----------|-----------|-----------|-----------\</tspan>
<tspan x="10" y="954">|</tspan>
<tspan x="10" y="970">File      |   % Stmts |% Branches |   % Funcs |   % Lines |</tspan>
<tspan x="10" y="986">----------|-----------|-----------|-----------|-----------|</tspan>
<tspan x="10" y="1002">----------|-----------|-----------|-----------|-----------|</tspan>
<tspan x="10" y="1018">All files |       100 |       100 |       100 |       100 |</tspan>
<tspan x="10" y="1034">----------|-----------|-----------|-----------|-----------|</tspan>
<tspan x="10" y="1050">", source: file:///home/travis/build/npmdoc/node-npmdoc-yo/tmp/electron.15ae494433c0.dc3c8ff3cc8\</tspan>
<tspan x="10" y="1066">6a.html (203)</tspan>
<tspan x="10" y="1082">[4447:0319/032008:INFO:CONSOLE(203)] "created coverage file:///tmp/build/coverage.html/index.htm\</tspan>
<tspan x="10" y="1098">l", source: file:///home/travis/build/npmdoc/node-npmdoc-yo/tmp/electron.15ae494433c0.dc3c8ff3cc\</tspan>
<tspan x="10" y="1114">86a.html (203)</tspan>
<tspan x="10" y="1130"></tspan>
<tspan x="10" y="1146">browserTest - created screen-capture file:///home/travis/build/npmdoc/node-npmdoc-yo/tmp/build/s\</tspan>
<tspan x="10" y="1162">creen-capture.npmTest.browser._2Fhome_2Ftravis_2Fbuild_2Fnpmdoc_2Fnode-npmdoc-yo_2Ftmp_2Fbuild_2\</tspan>
<tspan x="10" y="1178">Fapidoc.html.png</tspan>
<tspan x="10" y="1194"></tspan>
<tspan x="10" y="1210"></tspan>
<tspan x="10" y="1226">browserTest - exit-code 0 - file:///home/travis/build/npmdoc/node-npmdoc-yo/tmp/build/apidoc.htm\</tspan>
<tspan x="10" y="1242">l</tspan>
<tspan x="10" y="1258"></tspan>
<tspan x="10" y="1274">[node test-case 4 of 6 passed] - testCase_buildApidoc_default</tspan>
<tspan x="10" y="1290">[node test-case 5 of 6 passed] - testCase_buildApp_default</tspan>
<tspan x="10" y="1306"></tspan>
<tspan x="10" y="1322">browserTest - created screen-capture file:///home/travis/build/npmdoc/node-npmdoc-yo/tmp/build/s\</tspan>
<tspan x="10" y="1338">creen-capture.npmTest.browser..png</tspan>
<tspan x="10" y="1354"></tspan>
<tspan x="10" y="1370"></tspan>
<tspan x="10" y="1386">browserTest - exit-code 0 - http://127.0.0.1:50866?modeTest=1</tspan>
<tspan x="10" y="1402"></tspan>
<tspan x="10" y="1418"></tspan>
<tspan x="10" y="1434">browserTest - merged coverage from /home/travis/build/npmdoc/node-npmdoc-yo/tmp/coverage.npmTest\</tspan>
<tspan x="10" y="1450">.browser.%2F.json</tspan>
<tspan x="10" y="1466"></tspan>
<tspan x="10" y="1482"></tspan>
<tspan x="10" y="1498">browserTest - merging test-report from /home/travis/build/npmdoc/node-npmdoc-yo/tmp/test-report.\</tspan>
<tspan x="10" y="1514">npmTest.browser.%2F.json</tspan>
<tspan x="10" y="1530"></tspan>
<tspan x="10" y="1546">[node test-case 6 of 6 passed] - testCase_webpage_default</tspan>
<tspan x="10" y="1562">----------------------------|-----------|-----------|-----------|-----------|</tspan>
<tspan x="10" y="1578">File                        |   % Stmts |% Branches |   % Funcs |   % Lines |</tspan>
<tspan x="10" y="1594">----------------------------|-----------|-----------|-----------|-----------|</tspan>
<tspan x="10" y="1610">   node-npmdoc-yo/          |       100 |       100 |       100 |       100 |</tspan>
<tspan x="10" y="1626">      example.js            |       100 |       100 |       100 |       100 |</tspan>
<tspan x="10" y="1642">      lib.npmdoc_webpack.js |       100 |       100 |       100 |       100 |</tspan>
<tspan x="10" y="1658">      test.js               |       100 |       100 |       100 |       100 |</tspan>
<tspan x="10" y="1674">----------------------------|-----------|-----------|-----------|-----------|</tspan>
<tspan x="10" y="1690">All files                   |       100 |       100 |       100 |       100 |</tspan>
<tspan x="10" y="1706">----------------------------|-----------|-----------|-----------|-----------|</tspan>
<tspan x="10" y="1722"></tspan>
<tspan x="10" y="1738">created coverage file:///home/travis/build/npmdoc/node-npmdoc-yo/tmp/build/coverage.html/index.h\</tspan>
<tspan x="10" y="1754">tml</tspan>
<tspan x="10" y="1770">merging file:///home/travis/build/npmdoc/node-npmdoc-yo/tmp/build/test-report.json to test-repor\</tspan>
<tspan x="10" y="1786">t</tspan>
<tspan x="10" y="1802"></tspan>
<tspan x="10" y="1818">-------------------------------------------------------</tspan>
<tspan x="10" y="1834">| test-report - buildNpmdoc - node - linux v7.7.3 - 2017-03-19T03:19:45.417Z</tspan>
<tspan x="10" y="1850">|   25545 ms            0 failed        6 passed      |</tspan>
<tspan x="10" y="1866">-------------------------------------------------------</tspan>
<tspan x="10" y="1882"></tspan>
<tspan x="10" y="1898">created test-report file:///home/travis/build/npmdoc/node-npmdoc-yo/tmp/build/test-report.html</tspan>
<tspan x="10" y="1914"></tspan>
<tspan x="10" y="1930"></tspan>
<tspan x="10" y="1946">npmTest - 0 failed tests</tspan>
<tspan x="10" y="1962"></tspan>
<tspan x="10" y="1978"></tspan>
<tspan x="10" y="1994">[MODE_BUILD=npmTest] - 2017-03-19T03:20:13Z - EXIT_CODE - 0</tspan>
</text>
</svg>
